<?xml version="1.0" encoding="UTF-8" standalone="no"?>
<svg xmlns="http://www.w3.org/2000/svg" version="1.0" width="1280.000000pt" height="205.000000pt" viewBox="0 0 1280.000000 205.000000" preserveAspectRatio="xMidYMid meet">
  <metadata>
Created by potrace 1.16, written by Peter Selinger 2001-2019
</metadata>
  <g transform="translate(0.000000,205.000000) scale(0.100000,-0.100000)" fill="#ffffff" stroke="none">
    <path d="M1247 1814 c-4 -4 5 -20 18 -36 45 -53 30 -118 -31 -138 -48 -16 -93 -8 -316 56 -250 71 -299 79 -395 65 -181 -27 -267 -109 -268 -257 0 -61 4 -77 30 -120 20 -31 39 -50 54 -52 22 -3 22 -3 7 27 -31 59 -16 125 36 156 39 23 142 31 216 16 32 -6 140 -33 240 -61 100 -27 203 -52 227 -56 l45 -6 0 -488 c0 -457 -1 -489 -17 -493 -89 -25 -227 -11 -318 32 -33 15 -84 50 -113 77 l-53 49 157 85 c191 104 193 105 177 121 -10 10 -13 77 -13 266 0 152 -4 253 -9 253 -9 0 -344 -144 -363 -156 -13 -8 15 56 46 104 14 23 51 71 81 107 33 39 50 67 44 71 -6 3 -50 -13 -97 -36 -117 -59 -243 -181 -296 -290 -145 -299 -34 -686 236 -818 170 -83 415 -83 586 0 94 46 188 141 235 238 40 85 52 120 40 120 -5 0 -44 -35 -88 -78 -51 -50 -101 -88 -137 -105 -31 -15 -59 -27 -62 -27 -3 0 -6 218 -6 485 l0 485 38 0 c52 0 133 25 167 52 59 46 82 158 49 236 -29 70 -121 142 -147 116z m-547 -892 l0 -249 -49 -26 c-27 -15 -51 -27 -55 -27 -11 0 -53 95 -67 150 -14 62 -18 235 -6 293 7 35 14 41 80 72 40 18 78 34 85 34 9 1 12 -55 12 -247z"></path>
    <path d="M3777 1687 c-126 -74 -251 -152 -277 -175 -70 -60 -100 -127 -107 -241 -6 -90 -6 -91 -32 -91 -50 0 -97 -20 -131 -55 -29 -30 -34 -43 -37 -92 -3 -44 1 -67 15 -92 25 -46 38 -49 57 -12 18 35 35 46 88 54 l37 6 0 -150 c0 -159 -9 -200 -52 -246 -12 -13 -19 -25 -16 -28 3 -3 38 1 77 10 80 19 154 63 187 113 39 57 44 115 44 502 l0 368 34 21 c18 12 36 21 40 21 3 0 6 -241 6 -535 0 -603 2 -585 -70 -606 -42 -13 -54 -12 -266 27 -88 16 -108 16 -159 5 -73 -17 -136 -71 -159 -138 -15 -44 -22 -113 -11 -113 3 0 23 13 46 29 62 45 124 49 264 17 184 -42 261 -33 331 38 58 58 64 96 64 406 l0 260 125 0 125 0 0 -238 0 -239 -24 -11 c-58 -26 -147 -129 -162 -185 -3 -15 -4 -27 -1 -27 2 0 31 12 62 26 111 51 254 40 373 -27 l52 -29 126 94 126 95 100 -82 c55 -45 108 -87 117 -94 13 -10 30 2 110 78 51 50 91 91 90 92 -2 1 -35 18 -74 38 l-70 35 -3 516 -2 516 24 16 c30 19 71 88 81 135 7 31 5 33 -11 26 -11 -4 -52 -10 -92 -13 -90 -6 -142 12 -199 68 l-40 40 -155 -88 c-152 -87 -155 -89 -179 -72 -13 9 -70 49 -125 88 -56 40 -105 72 -110 72 -5 0 -112 -60 -237 -133z m141 -77 l82 -60 0 -185 0 -185 -125 0 -125 0 0 224 0 224 33 21 c17 11 37 21 43 21 6 0 47 -27 92 -60z m523 16 c27 -24 71 -52 99 -62 l50 -18 0 -183 0 -183 -125 0 -125 0 0 229 c0 226 0 229 23 244 12 9 24 16 26 16 1 1 25 -19 52 -43z m-131 -562 l0 -556 -32 7 c-18 4 -36 9 -40 12 -5 2 -8 240 -8 528 l0 523 33 20 c17 11 35 21 40 21 4 1 7 -249 7 -555z m280 -308 l0 -234 -53 -41 c-30 -22 -62 -41 -72 -41 -10 0 -42 12 -72 27 l-53 27 0 248 0 248 125 0 125 0 0 -234z"></path>
    <path d="M8951 1729 c-71 -77 -73 -80 -56 -99 10 -11 44 -30 76 -42 l59 -23 0 -192 0 -193 -180 0 -180 0 0 310 c0 269 -2 310 -15 310 -13 0 -15 -79 -15 -653 l0 -654 -57 20 c-71 25 -210 33 -285 18 -75 -16 -155 -66 -200 -126 -53 -70 -77 -152 -35 -116 27 21 132 52 202 57 92 8 174 -8 260 -50 38 -19 70 -34 70 -33 3 6 135 169 163 201 43 49 30 73 -19 32 -63 -53 -64 -50 -67 237 l-2 257 180 0 180 0 0 -235 c0 -216 -1 -236 -17 -241 -88 -28 -157 -88 -194 -167 -19 -43 -25 -82 -11 -75 164 84 282 89 382 17 l41 -30 77 82 c42 45 78 87 80 93 2 11 -59 44 -110 60 -17 5 -18 40 -18 543 l0 538 34 23 c40 28 83 86 96 132 l9 33 -37 -9 c-20 -4 -75 -8 -122 -9 -78 0 -90 3 -142 33 -32 17 -61 32 -65 31 -5 0 -41 -36 -82 -80z"></path>
    <path d="M3289 1776 c-57 -20 -93 -51 -122 -104 -26 -48 -48 -142 -33 -142 4 0 22 15 39 34 47 50 101 62 180 40 135 -37 187 -31 244 25 41 42 99 138 89 148 -3 4 -22 -1 -41 -10 -47 -22 -99 -21 -187 3 -83 23 -119 24 -169 6z"></path>
    <path d="M8161 1758 c-24 -11 -56 -39 -72 -61 -33 -46 -64 -139 -54 -164 5 -14 11 -10 36 19 51 62 107 70 239 33 84 -23 128 -15 180 32 43 38 105 137 96 152 -3 5 -23 0 -43 -10 -47 -24 -82 -24 -163 1 -87 26 -163 26 -219 -2z"></path>
    <path d="M1583 1663 c-107 -77 -143 -113 -115 -113 29 0 32 -62 32 -623 l1 -572 63 -47 63 -46 72 72 71 72 -30 17 -30 18 0 322 0 322 40 33 40 33 75 -56 75 -55 0 -320 0 -320 95 -70 96 -71 27 33 c15 18 46 54 69 79 50 53 52 64 18 73 -13 3 -40 16 -60 27 l-35 21 0 328 0 327 -121 81 -121 82 -96 -86 -97 -85 -5 306 -5 306 -122 -88z"></path>
    <path d="M12015 1741 c-3 -6 -42 -38 -86 -72 l-81 -61 34 -20 c18 -11 95 -81 170 -156 l137 -135 -77 -44 c-42 -24 -107 -61 -145 -81 l-67 -36 2 -345 3 -346 101 -70 c55 -38 115 -80 132 -93 l31 -23 60 55 c69 64 182 148 263 197 l57 34 1 338 0 339 -256 261 c-140 144 -259 263 -264 265 -4 2 -11 -2 -15 -7z m278 -550 l47 -45 0 -348 c0 -420 10 -397 -133 -305 l-97 62 0 327 0 326 48 30 c53 34 47 36 135 -47z"></path>
    <path d="M11574 1653 c-65 -48 -121 -88 -123 -90 -2 -1 8 -14 22 -27 l27 -25 0 -556 0 -555 95 -70 95 -71 32 38 c18 21 52 59 76 84 46 50 50 59 27 59 -9 0 -38 11 -65 25 l-50 25 0 625 c0 344 -4 625 -8 625 -5 0 -62 -39 -128 -87z"></path>
    <path d="M5057 1625 c-31 -35 -57 -67 -57 -72 0 -5 32 -32 70 -61 l70 -53 55 58 c30 32 54 63 55 69 0 6 -24 30 -52 54 -29 24 -60 49 -68 56 -13 11 -24 4 -73 -51z"></path>
    <path d="M7542 1620 l-62 -68 74 -57 75 -57 36 40 c19 22 45 53 57 68 l22 27 -35 29 c-18 16 -50 42 -70 58 l-36 29 -61 -69z"></path>
    <path d="M8482 1549 c-111 -55 -154 -128 -160 -271 l-4 -98 -46 0 c-59 0 -126 -33 -152 -74 -27 -45 -27 -129 0 -173 24 -39 33 -41 48 -9 15 34 48 53 105 61 l49 6 -4 -169 c-3 -158 -5 -173 -25 -201 -31 -41 -14 -47 51 -18 73 34 140 97 173 166 l28 56 5 350 c4 254 8 356 18 372 6 12 12 24 12 27 0 14 -42 4 -98 -25z"></path>
    <path d="M2512 1189 l-182 -120 0 -317 1 -317 102 -70 c55 -38 113 -78 127 -87 l25 -17 114 120 c85 90 111 123 102 132 -8 8 -21 2 -49 -26 -21 -21 -48 -37 -61 -37 -12 0 -51 17 -86 38 l-65 37 0 122 0 122 180 111 179 111 -56 87 c-31 48 -74 116 -96 152 -22 36 -43 68 -46 72 -3 4 -88 -47 -189 -113z m81 -87 c20 -37 53 -95 72 -129 l36 -61 -74 -46 c-41 -25 -77 -46 -80 -46 -4 0 -7 79 -7 175 0 96 3 175 8 175 4 0 24 -30 45 -68z"></path>
    <path d="M5027 1234 c-68 -76 -78 -94 -53 -94 7 0 25 -9 40 -21 l26 -20 2 -351 3 -351 92 -68 92 -68 71 82 c38 45 70 84 70 87 0 3 -27 17 -60 32 l-60 26 0 355 0 355 -67 49 c-38 28 -73 53 -79 56 -5 3 -40 -28 -77 -69z"></path>
    <path d="M5674 1252 c-50 -31 -118 -70 -152 -86 l-62 -30 0 -115 0 -116 66 -39 66 -38 -40 -18 c-60 -27 -117 -84 -142 -142 -18 -43 -22 -65 -18 -128 6 -93 32 -154 91 -213 71 -71 74 -72 148 -25 35 23 92 58 125 79 l61 37 96 -74 c53 -41 100 -74 106 -74 10 0 131 140 131 152 0 4 -8 8 -18 8 -9 0 -34 11 -55 25 l-37 26 0 324 0 323 -112 74 c-62 41 -124 82 -138 91 -24 15 -27 14 -116 -41z m164 -320 l3 -100 -48 10 c-26 5 -76 6 -110 3 l-63 -7 0 172 0 171 108 -74 107 -75 3 -100z m-6 -138 c4 -3 8 -76 8 -162 l0 -157 -66 -39 -66 -38 -27 19 c-14 11 -37 42 -51 69 -22 42 -25 62 -25 144 0 107 14 141 70 166 28 13 135 11 157 -2z"></path>
    <path d="M6192 1230 l-74 -79 34 -14 c18 -8 48 -26 66 -41 l32 -28 0 -357 0 -358 61 -47 62 -48 71 71 71 72 -27 20 -28 21 0 323 0 324 45 37 46 37 69 -48 70 -47 0 -357 0 -358 61 -47 62 -48 71 71 71 72 -27 20 -28 21 0 328 0 329 36 30 37 29 76 -47 76 -48 5 -335 5 -336 88 -67 c49 -36 90 -65 92 -63 25 27 135 164 135 168 0 4 -25 17 -55 29 l-55 23 0 336 0 337 -113 71 c-61 39 -118 74 -124 78 -8 4 -51 -25 -109 -74 l-96 -80 -66 47 c-37 26 -85 60 -106 75 -21 15 -45 28 -52 28 -6 0 -50 -30 -96 -67 -45 -36 -88 -70 -94 -75 -7 -5 -48 21 -111 72 -56 44 -102 80 -104 79 -2 0 -37 -36 -77 -79z"></path>
    <path d="M7516 1235 c-64 -71 -78 -95 -55 -95 6 0 24 -9 40 -21 l29 -20 0 -352 1 -352 52 -37 c29 -20 71 -50 93 -67 l42 -31 72 85 c40 47 71 87 69 88 -2 1 -30 15 -61 30 l-58 27 0 354 0 354 -67 49 c-37 26 -72 51 -79 55 -7 5 -37 -21 -78 -67z"></path>
    <path d="M9628 1188 l-178 -120 0 -316 1 -317 122 -85 c67 -47 124 -85 127 -85 3 0 56 53 119 118 88 90 112 120 103 129 -9 9 -21 3 -50 -25 -21 -20 -48 -37 -60 -37 -13 0 -52 17 -87 37 l-65 37 0 123 0 122 175 108 c96 59 175 112 175 117 0 11 -193 316 -200 314 -3 0 -85 -54 -182 -120z m100 -115 c27 -49 59 -104 71 -124 l22 -37 -75 -46 c-40 -25 -76 -46 -80 -46 -3 0 -6 79 -6 176 0 98 4 173 9 170 5 -3 31 -45 59 -93z"></path>
    <path d="M10067 1234 c-68 -76 -78 -94 -54 -94 7 0 32 -14 55 -31 l42 -31 0 -321 1 -322 110 -75 c60 -41 118 -81 128 -88 16 -11 28 -1 116 93 63 69 94 110 88 116 -6 6 -19 2 -35 -11 -36 -28 -62 -25 -135 15 l-63 36 0 298 c0 164 3 300 6 304 4 3 23 -7 43 -23 67 -53 162 -61 230 -19 32 19 91 93 91 114 0 7 -29 20 -65 30 -37 10 -84 31 -108 50 l-44 34 -69 -70 c-38 -38 -73 -69 -79 -69 -6 0 -49 31 -95 70 -47 38 -88 69 -91 70 -3 0 -36 -34 -72 -76z"></path>
    <path d="M10940 1259 c-41 -27 -110 -67 -152 -90 l-78 -40 0 -114 c0 -109 1 -114 23 -121 12 -4 42 -20 65 -37 l44 -29 -44 -25 c-120 -68 -168 -164 -147 -296 16 -95 74 -187 146 -229 l28 -16 115 73 c63 41 121 74 128 74 8 1 56 -31 107 -69 51 -39 97 -70 102 -70 5 0 25 19 44 43 20 23 48 56 62 73 l27 32 -55 27 -55 26 0 328 0 328 -138 92 c-76 50 -140 91 -142 90 -3 0 -39 -23 -80 -50z m150 -322 l0 -99 -62 7 c-35 3 -84 2 -110 -3 l-48 -9 0 167 c0 91 3 169 6 172 3 4 52 -26 109 -65 l104 -72 1 -98z m-9 -143 c5 -3 9 -76 9 -163 l0 -159 -61 -36 c-33 -20 -64 -36 -68 -36 -16 0 -61 57 -81 103 -15 34 -21 69 -22 120 0 136 48 193 155 183 32 -3 63 -8 68 -12z"></path>
  </g>
</svg>
