<svg width="22" height="22" viewBox="0 0 22 22" fill="none" xmlns="http://www.w3.org/2000/svg">
<path d="M1.84205e-05 11C0.0110184 4.906 4.95 -0.0109815 11.022 1.84203e-05C17.0609 0.0110184 22.0219 4.983 21.9999 11.011C21.9889 17.1379 17.0389 22.0219 10.879 21.9999C4.906 21.9779 -0.0109815 16.9949 1.84205e-05 11ZM11.011 2.00201C6.04999 2.00201 2.00201 6.02799 2.00201 10.978C2.00201 15.961 6.02799 19.9979 10.978 19.9979C15.961 19.9979 19.9979 15.972 19.9979 10.989C20.0089 6.03899 15.961 2.00201 11.011 2.00201Z" fill="white"/>
<path d="M10.0101 12.1225C10.0981 12.0125 10.1421 11.9465 10.1971 11.8805C11.5391 10.5275 12.8921 9.1855 14.2451 7.8435C14.8171 7.27151 15.7191 7.4805 15.9391 8.2175C16.0601 8.6245 15.9501 8.9655 15.6531 9.2625C15.0261 9.88949 14.3881 10.5165 13.7611 11.1545C12.7821 12.1335 11.7921 13.1235 10.8131 14.1025C10.2851 14.6305 9.73511 14.6305 9.19611 14.1025C8.22812 13.1345 7.26012 12.1775 6.30313 11.1985C5.74213 10.6265 5.97313 9.72449 6.73212 9.5155C7.11712 9.4165 7.45812 9.5155 7.73312 9.80149C8.42612 10.4945 9.11911 11.1875 9.80111 11.8695C9.86711 11.9465 9.92211 12.0125 10.0101 12.1225Z" fill="white"/>
</svg>
