<svg xmlns="http://www.w3.org/2000/svg" width="144" height="113" viewBox="0 0 144 113" fill="none"><path d="M28.7672 63.0963C28.7672 58.9501 28.7273 54.8438 28.807 50.6976C28.807 49.8604 28.5678 49.4617 27.8104 49.1428C25.8967 48.3853 24.023 47.588 22.1891 46.7508C21.2721 46.3521 21.0329 46.5514 20.9133 47.5082C20.4748 50.6976 21.0329 53.7674 21.8702 56.7973C23.6642 63.4949 25.2987 70.1926 25.9765 77.0896C26.415 81.5547 26.6542 86.0199 26.2157 90.5248C26.1359 91.4019 26.3751 91.9601 27.013 92.5979C31.3187 96.8238 31.5977 104.558 27.6509 109.103C23.9831 113.329 18.0429 113.409 14.2555 109.262C9.75055 104.319 10.4682 95.7474 15.7705 91.681C16.3286 91.2425 16.6077 90.8438 16.6476 90.1262C17.3652 81.475 16.0496 73.0631 14.0163 64.691C13.0197 60.5846 11.704 56.5581 11.3452 52.3322C11.0662 49.382 11.1459 46.4717 12.0628 43.6012C12.3419 42.6843 12.0628 42.4451 11.3054 42.1262C8.67414 41.0498 6.12264 39.8537 3.49142 38.7773C1.37846 37.9003 0.142578 36.4252 0.142578 34.1527C0.142578 31.9202 1.41833 30.5248 3.45155 29.6478C25.5379 20.1993 47.5844 10.7508 69.631 1.26238C71.3851 0.504906 72.9798 0.744109 74.6542 1.46172C94.1492 9.83381 113.644 18.166 133.179 26.5381C135.491 27.5348 137.844 28.5315 140.156 29.5282C142.269 30.4052 143.624 31.8803 143.624 34.2724C143.584 36.5846 142.269 37.98 140.196 38.8571C132.182 42.2856 124.209 45.7142 116.196 49.1029C115.199 49.5415 114.92 50.0597 114.92 51.0963C114.96 58.8704 114.88 66.6444 114.96 74.4185C115 76.4119 114.442 78.1262 113.365 79.7607C109.697 85.3023 104.555 89.0099 98.5346 91.6013C89.7638 95.3886 80.5147 96.465 71.106 96.3853C62.1758 96.3056 53.4449 95.1494 45.1525 91.5614C39.5711 89.1295 34.7472 85.7807 31.0795 80.7973C29.5246 78.6843 28.6077 76.4916 28.7672 73.7408C28.9266 70.1926 28.7672 66.6444 28.7672 63.0963ZM103.797 54.485C103.558 54.5647 103.319 54.6046 103.079 54.7242C93.4715 58.8305 83.8635 62.9368 74.2954 67.0431C72.5811 67.8006 70.9864 67.7607 69.2721 67.0033C57.3918 61.8604 45.5113 56.7973 33.631 51.6943C32.0363 51.0165 32.0363 51.0165 32.0363 52.7707C32.0363 59.3886 32.2356 66.0464 31.9565 72.6245C31.8369 76.0929 33.1924 78.6444 35.3851 80.9966C40.6476 86.5381 47.3054 89.4883 54.5612 91.2823C61.9366 93.1162 69.4316 93.3155 76.9266 92.9966C78.6011 92.9169 80.3153 92.9567 81.9499 92.4385C85.1393 92.1993 88.2489 91.5215 91.2788 90.6444C97.6974 88.8106 103.558 85.98 108.143 80.9567C109.658 79.3222 111.491 77.6876 111.531 75.2956C111.651 67.5614 111.571 59.867 111.571 52.1328C111.571 51.2956 111.372 51.0165 110.535 51.4152C108.342 52.4916 106.069 53.4883 103.797 54.485ZM34.7472 19.7607C34.5878 19.8006 34.4283 19.8006 34.3087 19.8405C24.3419 24.1062 14.3751 28.372 4.40836 32.6378C3.73062 32.9169 3.37181 33.3554 3.33195 34.1129C3.33195 34.9102 3.73062 35.3886 4.44823 35.7076C7.15919 36.8637 9.87015 37.98 12.5412 39.2159C13.4582 39.6544 14.0562 39.5348 14.6542 38.6577C15.2123 37.9003 15.93 37.2624 16.7273 36.7441C21.5512 33.5547 26.5745 33.8338 31.6775 35.9069C34.5878 37.1029 35.8635 39.774 34.7871 42.3654C33.7107 44.9966 31.0396 45.9135 28.0496 44.7574C26.9333 44.3189 25.817 43.8006 24.302 44.1594C24.7406 44.3986 24.9399 44.5182 25.1393 44.5979C40.2489 51.0963 55.3984 57.5547 70.508 64.0531C71.4648 64.4518 72.302 64.4119 73.219 64.0132C77.1658 62.2989 81.1924 60.6245 85.1393 58.9102C89.0861 57.1959 93.0329 55.4418 97.0197 53.6876C97.2589 53.6478 97.4981 53.6079 97.7373 53.5282C111.372 47.7076 124.967 41.8471 138.601 35.9866C139.398 35.6278 140.315 35.3488 140.315 34.1926C140.275 33.0365 139.398 32.7574 138.561 32.4385C116.714 23.0697 94.8668 13.7009 73.0197 4.33215C72.0628 3.93348 71.2256 4.05308 70.3087 4.45175C62.9731 7.64112 55.5977 10.7508 48.2223 13.9401C43.7572 15.8139 39.2522 17.8072 34.7472 19.7607ZM14.415 100.691C14.415 103.203 14.7339 104.399 15.611 105.874C17.5645 109.183 21.3917 110.06 24.1426 107.987C28.1293 104.957 28.1293 97.0232 23.9831 94.2724C22.8668 93.5547 22.6675 92.5979 22.827 91.4418C23.4648 86.7773 23.2655 82.1129 22.7472 77.4883C22.1094 71.5481 20.9133 65.6876 19.3187 59.9069C18.1625 55.7209 17.0064 51.5348 17.6841 47.0697C18.2024 43.5614 20.1559 41.2092 23.5446 40.8106C25.4981 40.5714 27.4117 41.0498 29.1658 41.887C30.322 42.4451 31.1592 42.166 31.6376 41.1694C32.116 40.1727 31.6376 39.4152 30.5612 38.9368C29.0064 38.2591 27.4117 37.8604 25.6974 37.7009C20.1957 37.1029 17.0861 39.4949 15.3319 43.5614C13.6575 47.4285 14.1758 51.4949 14.8934 55.4019C15.8104 60.5448 17.6044 65.5282 18.4416 70.7109C19.4781 77.1694 20.4748 83.6278 19.7173 90.2059C19.5977 91.3621 20.0761 92.877 18.6011 93.6743C15.5313 95.269 14.4947 98.0597 14.415 100.691Z" fill="url(#paint0_linear_527_2595)"></path><path d="M34.7467 19.7607C39.2517 17.8072 43.7567 15.8139 48.2617 13.8604C55.5972 10.671 62.9726 7.56139 70.3481 4.37202C71.265 3.97335 72.1022 3.81388 73.059 4.25242C94.9062 13.6212 116.753 22.99 138.601 32.3587C139.438 32.7175 140.315 32.9567 140.355 34.1129C140.395 35.3089 139.478 35.588 138.64 35.9069C125.006 41.7674 111.411 47.588 97.7766 53.4484C97.5374 53.5282 97.2982 53.568 97.059 53.6079C95.3049 53.4484 93.6305 54.0863 91.9162 54.166C86.574 54.3255 81.1919 53.9268 75.9295 53.2092C68.7932 52.2524 61.7766 50.7773 55.079 48.1461C48.4212 45.5149 42.162 42.2856 37.4577 36.6644C34.5075 33.1162 32.873 29.1295 33.5507 24.3454C33.7501 22.7508 34.5075 21.3554 34.7467 19.7607Z" fill="url(#paint1_linear_527_2595)"></path><path d="M81.9904 92.4784C80.3559 92.9568 78.6416 92.9568 76.9672 93.0365C69.4323 93.3156 61.9771 93.1163 54.6017 91.3223C47.3459 89.5282 40.6881 86.618 35.4256 81.0366C33.1931 78.6844 31.8376 76.1728 31.9971 72.6645C32.2761 66.0465 32.0768 59.4286 32.0768 52.8106C32.0768 51.0964 32.1167 51.0565 33.6715 51.7342C45.5519 56.8372 57.4323 61.9003 69.3127 67.0432C71.027 67.8007 72.6216 67.8007 74.3359 67.0831C83.904 62.9369 93.512 58.8704 103.12 54.7641C103.359 54.6844 103.598 54.6047 103.838 54.5249C103.838 61.3422 103.838 68.1595 103.877 74.9768C103.877 75.7342 103.718 76.412 103.359 77.1296C100.848 82.2326 96.7014 85.6213 91.8775 88.3721C88.728 90.0864 85.2994 91.1229 81.9904 92.4784Z" fill="#FA9E3B"></path><path d="M34.7473 19.7607C34.548 21.3156 33.7506 22.7508 33.5114 24.3455C32.8337 29.1295 34.4682 33.1162 37.4184 36.6644C42.0829 42.2857 48.3819 45.5548 55.0397 48.1461C61.7772 50.7774 68.7938 52.2923 75.8902 53.2092C81.1925 53.9269 86.5347 54.3255 91.8769 54.1661C93.5912 54.1262 95.2656 53.4484 97.0197 53.6079C93.0729 55.3621 89.1261 57.1162 85.1393 58.8305C81.1526 60.5448 77.1659 62.2192 73.2191 63.9335C72.3021 64.3322 71.4649 64.4119 70.5081 63.9734C55.3985 57.475 40.249 50.9767 25.1393 44.5182C24.94 44.4385 24.7008 44.3189 24.3021 44.0797C25.8171 43.7209 26.9334 44.2392 28.0496 44.6777C31.0397 45.8338 33.7108 44.9169 34.7872 42.2857C35.8636 39.6943 34.5878 36.9833 31.6775 35.8272C26.5746 33.7541 21.5513 33.475 16.7274 36.6644C15.93 37.1827 15.2124 37.8205 14.6543 38.578C14.0563 39.4152 13.4583 39.5348 12.5413 39.1362C9.87024 37.9401 7.15927 36.784 4.44831 35.6278C3.7307 35.3089 3.33203 34.8704 3.33203 34.0332C3.33203 33.2757 3.7307 32.8372 4.40844 32.5581C14.3752 28.2923 24.342 24.0265 34.3088 19.7607C34.4284 19.8006 34.5878 19.8006 34.7473 19.7607Z" fill="#F5CB9F"></path><path d="M14.4144 100.691C14.4942 98.0598 15.5307 95.2691 18.6005 93.6346C20.0756 92.8372 19.5972 91.3223 19.7168 90.1661C20.5141 83.6279 19.4775 77.1296 18.441 70.6711C17.6038 65.4884 15.8098 60.5449 14.8928 55.3622C14.1752 51.4153 13.657 47.3887 15.3314 43.5216C17.0855 39.495 20.1952 37.103 25.6968 37.6612C27.4111 37.8605 29.0058 38.2193 30.5606 38.897C31.637 39.3754 32.1154 40.1329 31.637 41.1296C31.1586 42.1263 30.3214 42.4053 29.1653 41.8472C27.4111 41.01 25.4975 40.5316 23.544 40.7708C20.1154 41.2093 18.2018 43.5216 17.6835 47.0299C17.0058 51.495 18.1619 55.6811 19.3181 59.8671C20.9128 65.6479 22.1088 71.5083 22.7467 77.4485C23.2649 82.0731 23.4643 86.7376 22.8264 91.402C22.6669 92.5582 22.8663 93.4751 23.9825 94.2326C28.1287 96.9834 28.1686 104.957 24.142 107.947C21.3912 110.02 17.5639 109.143 15.6104 105.834C14.7732 104.399 14.4543 103.203 14.4144 100.691Z" fill="#FA9E3B"></path><path d="M81.9902 92.4784C85.2992 91.1229 88.6879 90.0863 91.8374 88.3322C96.6613 85.5813 100.808 82.1926 103.319 77.0896C103.678 76.4119 103.837 75.7342 103.837 74.9368C103.798 68.1195 103.837 61.3023 103.798 54.485C106.07 53.4883 108.342 52.4916 110.615 51.495C111.452 51.1362 111.651 51.4152 111.651 52.2126C111.651 59.9468 111.731 67.6411 111.611 75.3754C111.572 77.7674 109.738 79.4019 108.223 81.0365C103.638 86.0199 97.7377 88.8504 91.359 90.7242C88.2892 91.5614 85.1796 92.2392 81.9902 92.4784Z" fill="#DB9243"></path><defs><linearGradient id="paint0_linear_527_2595" x1="26.849" y1="26.1437" x2="165.082" y2="109.267" gradientUnits="userSpaceOnUse"><stop stop-color="#BC6608"></stop><stop offset="1" stop-color="#FA9E3B"></stop></linearGradient><linearGradient id="paint1_linear_527_2595" x1="53.3066" y1="15.4014" x2="123.766" y2="85.5535" gradientUnits="userSpaceOnUse"><stop stop-color="#FA9E3B"></stop><stop offset="1" stop-color="#F5CB9F"></stop></linearGradient></defs></svg>