<svg xmlns="http://www.w3.org/2000/svg" width="120" height="120" viewBox="0 0 120 120" fill="none"><path d="M103.129 119.969C102.879 119.626 102.443 119.657 102.1 119.501C99.761 118.378 98.4824 116.539 98.4824 113.981C98.4512 88.1602 98.4512 62.3078 98.4824 36.4866C98.4824 32.7756 101.351 30.2808 105.281 30.4679C105.468 30.5614 105.624 30.6238 105.811 30.7173C108.805 31.9336 109.958 33.6487 109.958 36.892C109.958 62.5573 109.958 88.1914 109.99 113.857C109.99 115.291 109.584 116.507 108.805 117.661C107.931 118.94 106.559 119.376 105.281 120C104.532 119.969 103.846 119.969 103.129 119.969Z" fill="url(#paint0_linear_527_2663)"></path><path d="M105.25 119.969C106.529 119.345 107.901 118.908 108.774 117.63C109.554 116.476 109.959 115.229 109.959 113.825C109.928 88.16 109.959 62.5259 109.928 36.8607C109.928 33.6174 108.774 31.9022 105.78 30.686C105.593 30.6237 105.437 30.5301 105.25 30.4365C108.275 30.4365 111.331 30.3118 114.356 30.4365C116.82 30.5301 118.566 31.8711 119.564 34.1476C119.689 34.4594 119.626 34.8648 119.969 35.0831C119.969 61.8087 119.969 88.5655 119.969 115.291C119.221 117.661 117.662 119.22 115.292 119.969C111.955 119.969 108.587 119.969 105.25 119.969Z" fill="url(#paint1_linear_527_2663)"></path><path d="M0.21875 51.6736C0.686526 50.5509 1.09193 49.3971 2.02748 48.5239C3.36844 47.2453 4.99006 46.7775 6.79879 46.8399C7.07946 46.9647 7.36012 47.0894 7.64079 47.183C10.042 48.025 11.6637 50.2391 11.6637 52.7651C11.6637 73.1601 11.6637 93.5551 11.6637 113.95C11.6637 114.823 11.4765 115.634 11.1023 116.414C10.2291 118.285 8.70108 119.376 6.73642 119.938C6.05035 119.938 5.3331 119.938 4.64702 119.938C2.4017 118.877 0.686526 117.38 0.21875 114.792C0.21875 93.7734 0.21875 72.7235 0.21875 51.6736Z" fill="url(#paint2_linear_527_2663)"></path><path d="M6.76758 119.969C8.70105 119.376 10.2291 118.316 11.1335 116.445C11.5077 115.665 11.6948 114.854 11.6948 113.981C11.6948 93.5863 11.6948 73.1913 11.6948 52.7963C11.6948 50.2703 10.0732 48.0873 7.67194 47.2142C7.39128 47.1206 7.11061 46.9959 6.82995 46.8711C10.2603 46.8399 13.6907 46.5281 17.0898 47.027C19.7717 47.4325 21.7676 49.9584 21.7676 52.6715C21.7676 73.1601 21.7676 93.6487 21.7676 114.168C21.7676 116.694 20.146 118.94 17.7135 119.751C17.4952 119.813 17.2457 119.813 17.0898 120.031C13.6283 119.969 10.1979 119.969 6.76758 119.969Z" fill="#FA9E3B"></path><path d="M70.3848 119.969C68.9191 119.345 67.4846 118.659 66.6426 117.193C65.9877 116.04 65.707 114.855 65.707 113.514C65.707 95.8317 65.707 78.1498 65.707 60.4991C65.707 56.102 68.5137 53.5448 72.9731 53.8566C73.0043 54.1373 73.2226 54.1997 73.4409 54.2932C75.9045 55.4783 77.1831 57.3806 77.1831 60.1872C77.1519 78.0874 77.1519 96.0188 77.1831 113.919C77.1831 115.26 76.8089 116.414 76.0916 117.536C75.2185 118.877 73.8463 119.345 72.5054 119.969C71.7881 119.969 71.102 119.969 70.3848 119.969Z" fill="#FA9E3B"></path><path d="M72.5059 119.969C73.8156 119.345 75.219 118.877 76.0921 117.536C76.8094 116.414 77.1836 115.26 77.1836 113.919C77.1836 96.0186 77.1524 78.0872 77.1836 60.187C77.1836 57.3492 75.8738 55.4781 73.4414 54.2931C73.2231 54.1995 73.0048 54.1371 72.9736 53.8565C76.1233 53.8565 79.273 53.5446 82.4227 54.0124C85.167 54.4178 87.2252 56.8814 87.2252 59.6569C87.2252 77.8066 87.2252 95.9563 87.2252 114.137C87.2252 116.694 85.6036 118.877 83.1711 119.688C82.9528 119.75 82.7034 119.75 82.5474 119.969C79.2106 119.969 75.8427 119.969 72.5059 119.969Z" fill="url(#paint3_linear_527_2663)"></path><path d="M37.6406 119.969C36.2061 119.314 34.7404 118.69 33.8984 117.193C33.3371 116.227 32.9629 115.229 32.9629 114.106C32.9629 103.129 32.9629 92.1517 32.9629 81.1746C32.9629 78.3368 35.2394 74.8129 39.9795 75.2806C40.1354 75.3742 40.2914 75.4677 40.4785 75.5613C43.1604 76.684 44.439 78.6174 44.439 81.5488C44.439 92.37 44.439 103.191 44.439 114.012C44.439 115.26 44.0336 116.351 43.4099 117.412C42.5679 118.815 41.1022 119.283 39.7612 119.969C39.044 119.969 38.3579 119.969 37.6406 119.969Z" fill="#F5CB9F"></path><path d="M39.7617 119.969C41.1027 119.283 42.5372 118.815 43.4104 117.412C44.0653 116.351 44.4395 115.26 44.4395 114.012C44.4395 103.191 44.4395 92.37 44.4395 81.5488C44.4395 78.6174 43.1609 76.684 40.479 75.5613C40.2919 75.4989 40.1359 75.3742 39.98 75.2806C42.9738 75.2806 45.9675 75.2183 48.9613 75.2806C51.9239 75.343 54.4499 77.9002 54.4811 80.8628C54.5122 92.027 54.5122 103.191 54.4811 114.355C54.4811 116.663 52.7971 118.815 50.5517 119.657C50.3023 119.751 49.9904 119.688 49.8033 119.969C46.4665 119.969 43.0985 119.969 39.7617 119.969Z" fill="#FA9E3B"></path><path d="M103.908 7.67155C103.254 3.74224 104.283 1.9335 108.056 0.249512C108.836 0.249512 109.615 0.249512 110.395 0.249512C112.141 0.904397 113.669 1.87113 114.387 3.71105C115.291 5.98756 114.854 8.01459 113.17 9.72976C111.486 11.4138 109.428 11.8192 107.152 10.9772C106.84 10.8524 106.528 10.6965 106.185 10.5406C105.156 9.79213 104.47 8.79421 103.908 7.67155Z" fill="#DB9243"></path><path d="M15.9364 27.3494C18.4936 29.7818 20.9884 32.2766 23.3896 34.865C25.8532 37.5157 28.5352 39.9481 30.9988 42.5988C34.1485 45.9356 37.3917 49.1477 40.6038 52.4221C40.8532 52.6716 41.1339 52.8899 41.1963 53.2641C40.3231 54.0126 39.4811 54.761 38.795 55.6654C36.0819 53.0458 33.4 50.3951 30.8428 47.6196C28.2545 44.813 25.4167 42.2558 22.7971 39.4803C19.9593 36.4554 16.9967 33.524 14.0653 30.5614C13.8158 30.3119 13.5352 30.0936 13.5352 29.6882C14.4395 29.0022 15.2815 28.2849 15.9364 27.3494Z" fill="#B9B9B9"></path><path d="M103.909 7.67139C104.47 8.79405 105.156 9.79197 106.185 10.5092C99.2932 16.0602 92.3702 21.5487 85.5095 27.162C84.2309 28.1911 82.734 29.0019 81.7984 30.4365C81.393 29.2826 80.4887 28.4718 79.7402 27.5986C79.9897 26.5071 81.0188 26.1953 81.7361 25.6028C85.9461 22.1412 90.2184 18.7421 94.4596 15.3429C97.4845 12.9105 100.509 10.5092 103.503 8.10798C103.659 7.98324 103.784 7.79613 103.909 7.67139Z" fill="#B9B9B9"></path><path d="M46.5293 53.576C48.0262 53.0147 49.0553 51.7984 50.2715 50.8629C55.3547 46.84 60.3755 42.786 65.4274 38.7319C67.3297 37.2038 69.232 35.6758 71.1343 34.1477C71.6332 35.1768 72.3505 36.0812 73.1925 36.892C71.6021 38.6072 69.6686 39.8858 67.891 41.3514C63.7122 44.7506 59.5335 48.1186 55.2923 51.4554C53.2029 53.1082 51.2071 54.8858 48.9929 56.3826C48.4004 55.2288 47.5896 54.2932 46.5293 53.576Z" fill="#B9B9B9"></path><path d="M15.9354 27.3492C15.3117 28.2847 14.4697 29.002 13.5654 29.6881C12.5363 29.9063 11.5695 30.2494 10.5092 30.187C7.73378 29.9999 5.3949 27.5051 5.42609 24.6361C5.42609 21.7359 7.76497 19.397 10.5716 19.1163C14.3762 18.7421 18.056 22.7026 15.9354 27.3492Z" fill="#DB9243"></path><path d="M46.5276 53.5758C47.5567 54.3242 48.3987 55.2598 48.9912 56.3824C49.6773 58.9708 49.2095 61.2473 46.9642 62.9001C44.9371 64.397 42.2552 64.3346 40.2594 62.8066C38.3571 61.372 37.671 58.8772 38.4506 56.5384C38.5442 56.2577 38.6378 55.9458 38.7625 55.6652C39.4486 54.7608 40.3217 54.0124 41.1637 53.2639C43.0037 52.765 44.8124 52.609 46.5276 53.5758Z" fill="#DB9243"></path><path d="M73.1924 36.8607C72.3504 36.0499 71.6332 35.1767 71.1342 34.1164C70.4481 31.2786 71.1654 28.9397 73.7225 27.3805C75.7184 26.1643 77.7454 26.5697 79.7101 27.5676C80.4897 28.4719 81.3629 29.2828 81.7683 30.4054C82.8286 33.8981 80.5833 37.2661 77.0905 37.7339C75.6872 37.9834 74.471 37.3909 73.1924 36.8607Z" fill="#DB9243"></path><defs><linearGradient id="paint0_linear_527_2663" x1="100.605" y1="50.8085" x2="115.676" y2="51.7156" gradientUnits="userSpaceOnUse"><stop stop-color="#FA9E3B"></stop><stop offset="1" stop-color="#F5CB9F"></stop></linearGradient><linearGradient id="paint1_linear_527_2663" x1="107.99" y1="50.7419" x2="127.185" y2="52.216" gradientUnits="userSpaceOnUse"><stop stop-color="#BC6608"></stop><stop offset="1" stop-color="#FA9E3B"></stop></linearGradient><linearGradient id="paint2_linear_527_2663" x1="2.34901" y1="63.4488" x2="17.2823" y2="64.5416" gradientUnits="userSpaceOnUse"><stop stop-color="#FA9E3B"></stop><stop offset="1" stop-color="#F5CB9F"></stop></linearGradient><linearGradient id="paint3_linear_527_2663" x1="75.2456" y1="68.8033" x2="94.348" y2="70.7881" gradientUnits="userSpaceOnUse"><stop stop-color="#FA9E3B"></stop><stop offset="1" stop-color="#F5CB9F"></stop></linearGradient></defs></svg>