<svg xmlns="http://www.w3.org/2000/svg" width="120" height="120" viewBox="0 0 120 120" fill="none"><path d="M0.21875 86.7568C0.59297 85.1352 0.873636 83.5135 1.34141 81.9231C3.58673 74.0333 8.29567 68.0769 15.3747 63.9605C15.6553 63.8046 15.9048 63.6175 16.1543 63.4616C16.3726 63.368 16.5909 63.2744 16.778 63.1809C20.4266 61.4345 24.2312 60.3431 28.2853 60.1248C28.6283 60.2495 29.0025 60.4678 29.3456 60.5302C32.7136 60.9668 35.8009 62.1206 38.7946 63.711C44.6262 66.7984 48.8986 71.4137 51.7052 77.3077C54.4495 83.1081 55.1668 89.2516 53.9817 95.5821C52.6096 102.879 48.9298 108.898 43.1605 113.514C39.3871 116.538 35.0212 118.472 30.2499 119.407C29.5639 119.532 28.8466 119.439 28.2853 119.938C28.1294 119.938 27.9734 119.938 27.8175 119.938C24.8861 119.47 21.9547 118.877 19.1481 117.879C19.0233 117.817 18.8674 117.724 18.7427 117.661C9.13767 113.42 3.11896 106.185 0.811266 95.894C0.624155 95.052 0.686525 94.1164 0.249935 93.3368C0.21875 91.1227 0.21875 88.9397 0.21875 86.7568ZM28.2853 111.861C30.6553 112.266 32.9942 111.954 35.3019 111.424C46.4973 108.773 54.1065 97.4844 51.7364 85.6653C49.5847 74.9376 39.356 67.1102 28.5348 68.1393C28.1605 68.2017 27.7551 68.2329 27.3809 68.2952C15.6242 69.6986 7.04827 80.5821 8.38923 92.4324C9.57426 102.942 17.8383 111.019 28.2853 111.861Z" fill="#FA9E3B"></path><path d="M108.057 119.969C83.1089 119.969 58.1609 119.969 33.2129 119.969C33.3688 119.906 33.5559 119.782 33.7119 119.751C36.7056 119.47 39.5435 118.597 42.2877 117.412C45.4062 116.102 48.057 114.106 50.6141 111.985C64.7098 111.985 78.8054 112.017 92.901 111.985C93.9925 111.985 95.1464 111.83 96.0819 111.081C97.0175 110.863 97.7347 110.239 98.3896 109.584C103.099 104.875 107.839 100.135 112.548 95.4262C113.109 94.8648 113.733 94.3035 114.325 93.7422C114.325 99.8545 114.356 105.936 114.325 112.048C114.294 115.291 112.828 117.661 109.897 119.127C109.304 119.439 108.681 119.688 108.057 119.969Z" fill="#B9B9B9"></path><path d="M16.1855 33.8981C16.1855 32.7443 16.1855 31.5904 16.1855 30.4054C16.7781 30.4054 17.3394 30.4054 17.9319 30.4054C49.6159 30.4054 81.2999 30.4054 112.984 30.4366C114.013 30.4366 114.387 30.2495 114.387 29.0956C114.325 24.605 114.387 20.1455 114.325 15.6549C114.294 13.3472 113.171 11.5385 111.487 10.0104C110.645 9.26195 109.46 9.10603 108.743 8.23285C109.865 8.23285 110.988 8.20166 112.111 8.20166C114.387 8.23285 116.29 9.1684 117.88 10.79C118.971 11.9127 119.408 13.316 119.938 14.7193C119.938 23.1393 119.938 31.5592 119.938 39.9792C118.067 40.0104 116.196 40.0104 114.325 40.0416C114.325 38.5135 114.325 37.0166 114.325 35.4886C114.325 33.9293 114.325 33.9293 112.734 33.9293C82.672 33.9293 52.6097 33.9293 22.5785 33.9293C20.4891 33.9293 18.3373 33.8981 16.1855 33.8981Z" fill="#FA9E3B"></path><path d="M50.645 111.985C48.0878 114.137 45.4059 116.102 42.3185 117.412C39.5743 118.597 36.7364 119.439 33.7427 119.75C33.5556 119.782 33.3996 119.906 33.2437 119.969C31.6221 119.969 29.9693 119.969 28.3477 119.969C28.909 119.47 29.6574 119.563 30.3123 119.439C35.0836 118.503 39.4495 116.57 43.2229 113.545C48.9921 108.898 52.672 102.911 54.0441 95.6133C55.2292 89.2827 54.5119 83.1393 51.7676 77.3388C48.961 71.4137 44.6886 66.8295 38.857 63.7422C35.8944 62.1829 32.7759 60.9979 29.4079 60.5613C29.0337 60.4989 28.6907 60.2806 28.3477 60.1559C30.9672 60 33.5556 60.1559 36.1127 60.6237C53.6075 63.9605 64.3664 82.5779 58.6283 99.5426C56.9755 104.345 54.2 108.43 50.645 111.985Z" fill="#DB9243"></path><path d="M114.355 40.0414C116.227 40.0102 118.098 40.0102 119.969 39.979C119.969 55.478 119.969 71.0081 119.969 86.5071C119.532 86.9748 119.595 87.6609 119.252 88.1599C117.63 87.6921 115.977 88.0351 114.355 87.9104C114.355 72.006 114.355 56.1017 114.355 40.1973C114.387 40.1661 114.387 40.1037 114.355 40.0414Z" fill="#B9B9B9"></path><path d="M119.252 88.1911C119.595 87.6922 119.533 87.0061 119.969 86.5383C119.969 95.4884 119.969 104.47 119.969 113.42C119.439 114.574 119.159 115.79 118.379 116.819C117.1 118.472 115.354 119.345 113.452 119.969C111.674 119.969 109.865 119.969 108.088 119.969C108.712 119.688 109.366 119.439 109.99 119.127C112.922 117.692 114.387 115.291 114.418 112.048C114.45 105.935 114.418 99.8543 114.418 93.7421C115.915 91.8398 118.067 90.4365 119.252 88.1911Z" fill="#B9B9B9"></path><path d="M93.3061 0.218262C95.2708 0.904332 96.8612 2.02699 97.672 4.05402C98.2022 5.39498 97.9527 6.7983 98.0463 8.17045C98.0463 10.291 98.0463 12.3804 98.0463 14.501C98.0774 15.8108 97.4226 16.9023 96.83 17.9937C96.5494 18.2432 96.2375 18.4927 95.9569 18.7734C94.117 20.4262 91.1544 20.738 89.3145 19.4594C91.2791 18.2744 92.433 16.6216 92.4018 14.2515C92.3706 11.7255 92.3394 9.19955 92.4018 6.67356C92.4953 4.11639 91.4974 2.24529 89.3456 0.935517C89.6887 0.467742 90.3436 0.623667 90.749 0.249447C91.591 0.218262 92.4641 0.218262 93.3061 0.218262Z" fill="url(#paint0_linear_527_2626)"></path><path d="M45.5929 0.218197C46.3101 0.717157 47.1833 0.904267 47.9006 1.4656C49.5534 2.83774 50.1771 4.61529 50.2394 6.6735C50.2394 7.17246 50.2706 7.67142 50.3018 8.17038C50.3018 10.2598 50.3018 12.3492 50.2706 14.4386C50.0211 15.686 49.6781 16.9334 48.8985 17.9625C48.5243 18.3055 48.15 18.6174 47.7758 18.9604C46.5284 20.0831 43.5658 20.7691 41.8507 19.6153C41.8507 19.0228 42.3496 18.7421 42.6926 18.4303C43.6906 17.5259 44.2519 16.4656 44.439 15.1246C44.8756 12.0685 44.6885 9.01238 44.5949 5.95624C44.5326 3.77329 43.4099 1.99574 41.4141 0.904267C41.7571 0.467677 42.412 0.592417 42.7862 0.187012C43.7218 0.218197 44.6573 0.218197 45.5929 0.218197Z" fill="url(#paint1_linear_527_2626)"></path><path d="M21.7368 119.969C21.6432 119.283 20.9572 119.47 20.5829 119.158C20.084 118.753 19.3355 118.659 19.1484 117.911C21.9551 118.909 24.8865 119.501 27.8179 119.969C26.0403 119.969 24.2316 119.969 22.4541 119.969C22.3917 119.813 22.2981 119.813 22.2358 119.969C22.0486 119.969 21.8927 119.969 21.7368 119.969Z" fill="#EBE5F1"></path><path d="M22.2051 119.969C22.2674 119.813 22.361 119.813 22.4234 119.969C22.361 119.969 22.2986 119.969 22.2051 119.969Z" fill="#FDFDFE"></path><path d="M114.356 40.2285C114.356 56.1329 114.356 72.0372 114.356 87.9416C110.614 88.0663 106.903 87.8169 103.161 88.1287C99.4808 88.4406 96.1128 91.8397 96.1128 95.5507C96.1128 100.727 96.1128 105.904 96.1128 111.081C95.1772 111.829 94.0234 111.985 92.9319 111.985C78.8363 112.016 64.7406 111.985 50.645 111.985C54.2001 108.43 56.9756 104.345 58.5972 99.5112C64.3352 82.5466 53.5764 63.9291 36.0816 60.5923C33.5244 60.0934 30.9049 59.9686 28.3165 60.1245C24.2625 60.3428 20.4579 61.4343 16.8092 63.1807C16.591 63.2742 16.3727 63.3678 16.1855 63.4613C16.1855 55.6651 16.2167 47.8688 16.2167 40.1038C16.8404 40.1349 17.4641 40.1661 18.0878 40.1661C49.6783 40.1661 81.2687 40.1661 112.859 40.1661C113.358 40.1661 113.857 40.1973 114.356 40.2285ZM71.8508 57.9416C71.04 59.8127 70.2916 61.5279 69.5431 63.2119C67.2354 68.451 64.9277 73.69 62.6512 78.8979C62.0899 80.1765 62.3706 81.2368 63.3997 81.6734C64.4288 82.11 65.3643 81.6422 65.9569 80.3325C66.2999 79.5528 66.6429 78.7732 66.986 77.9936C70.0421 71.0393 73.0982 64.1162 76.1232 57.162C76.8092 55.5715 76.1232 54.2618 74.5327 54.2618C70.198 54.2306 65.8945 54.2306 61.5598 54.2618C60.4371 54.2618 59.6575 55.0726 59.6263 56.0705C59.6263 57.0372 60.4059 57.848 61.5286 57.9104C62.4953 57.9728 63.4621 57.9416 64.46 57.9416C66.8924 57.9416 69.2937 57.9416 71.8508 57.9416Z" fill="white"></path><path d="M50.2712 14.4696C50.2712 12.3802 50.2712 10.2908 50.3024 8.20142C62.2151 8.20142 74.1278 8.20142 86.0405 8.20142C86.0405 10.2908 86.0405 12.4114 86.0405 14.5008C84.7931 14.5008 83.5457 14.5008 82.3294 14.5008C81.0508 14.5008 80.2088 15.2492 80.24 16.2783C80.2712 17.3074 81.082 17.9935 82.3294 17.9935C83.9822 17.9935 85.6662 17.9935 87.319 17.9935C87.9427 18.5237 88.5041 19.1786 89.3149 19.4592C91.186 20.7378 94.1174 20.426 95.9573 18.7731C96.238 18.5237 96.5498 18.2742 96.8305 17.9935C98.5768 17.9935 100.323 18.0247 102.07 17.9935C103.13 17.9623 103.878 17.1515 103.847 16.1848C103.816 15.2492 103.036 14.5008 102.007 14.4696C100.697 14.4696 99.3565 14.4696 98.0467 14.4696C98.0467 12.349 98.0467 10.2596 98.0467 8.13905C101.383 8.13905 104.72 8.17023 108.057 8.17023C108.119 8.29497 108.213 8.29497 108.275 8.17023C108.431 8.17023 108.587 8.17023 108.774 8.17023C109.492 9.04341 110.708 9.19934 111.519 9.94778C113.203 11.4758 114.325 13.2846 114.356 15.5923C114.419 20.0829 114.325 24.5424 114.419 29.033C114.45 30.1557 114.045 30.374 113.016 30.374C81.3315 30.3428 49.6475 30.3428 17.9635 30.3428C17.371 30.3428 16.8097 30.3428 16.2172 30.3428C16.2172 25.6027 16.1548 20.8314 16.2172 16.0912C16.2795 11.6318 19.7411 8.20142 24.2317 8.13905C28.8783 8.07668 33.4937 8.13905 38.1403 8.13905C38.1403 10.2284 38.1403 12.349 38.1403 14.4384C36.7993 14.4384 35.4272 14.4384 34.0862 14.4384C33.0259 14.4384 32.4646 15.0933 32.371 15.9665C32.2775 16.7773 32.7141 17.744 33.6184 17.8376C35.5207 18.0247 37.4542 18.1806 39.3565 17.744C40.0737 18.5548 40.8222 19.3345 41.9136 19.6151C43.6288 20.769 46.5602 20.0829 47.8388 18.9603C48.213 18.6172 48.5872 18.3054 48.9615 17.9623C50.6766 17.9623 52.3606 17.9935 54.0758 17.9623C55.2608 17.9311 56.0093 17.1515 55.9469 16.06C55.9157 15.1245 55.1361 14.4696 54.0446 14.4696C52.7348 14.4696 51.5186 14.4696 50.2712 14.4696Z" fill="url(#paint2_linear_527_2626)"></path><path d="M114.356 40.2286C113.857 40.2286 113.358 40.1974 112.828 40.1974C81.2375 40.1974 49.6471 40.1974 18.0566 40.1974C17.4329 40.1974 16.8092 40.135 16.1855 40.135C16.1855 38.0768 16.1855 35.9874 16.1855 33.9292C18.3373 33.9292 20.4579 33.9604 22.6097 33.9604C52.672 33.9604 82.7344 33.9604 112.766 33.9604C114.356 33.9604 114.325 33.9604 114.356 35.5196C114.356 37.0477 114.356 38.5446 114.356 40.0726C114.387 40.1038 114.387 40.1662 114.356 40.2286Z" fill="#F5CB9F"></path><path d="M41.8516 19.6465C40.7601 19.3658 40.0117 18.5862 39.2944 17.7754C38.6707 16.7463 38.2341 15.686 38.1094 14.4698C38.1094 12.3804 38.1094 10.2598 38.1094 8.17041C38.2341 7.07893 38.0158 5.95627 38.3277 4.83361C38.7954 3.05606 39.7934 1.71511 41.4462 0.904297C43.4732 1.99577 44.5647 3.77332 44.627 5.95627C44.7206 9.01241 44.9077 12.0685 44.4711 15.1247C44.284 16.4656 43.7227 17.5259 42.7248 18.4303C42.3505 18.8045 41.8516 19.054 41.8516 19.6465Z" fill="#DB9243"></path><path d="M28.2862 111.861C17.8392 110.987 9.57513 102.91 8.3901 92.401C7.04915 80.5507 15.625 69.6672 27.3818 68.2638C27.756 68.2327 28.1614 68.1703 28.5356 68.1079C28.598 68.5445 28.9722 68.4821 29.2529 68.5445C33.9618 69.636 37.9535 71.9437 41.1344 75.5923C44.3153 79.241 46.124 83.5133 46.5294 88.3158C46.8724 92.6194 46.0304 96.7358 43.8475 100.54C40.8537 105.811 36.519 109.397 30.6562 111.112C29.8766 111.362 28.9722 111.299 28.2862 111.861ZM27.3818 87.2243C25.729 88.9707 25.729 91.0913 27.3818 92.8376C28.0367 93.6796 28.9099 93.9291 29.9078 94.0227C31.7165 94.1786 32.9015 93.2119 33.8683 91.8397C35.8017 91.8397 37.7664 91.8709 39.6999 91.8397C41.1344 91.8397 41.914 91.1537 41.914 89.9998C41.914 88.846 41.1344 88.1911 39.6999 88.1599C37.7664 88.1599 35.8017 88.1599 33.8683 88.1599C33.3381 87.4114 32.7144 86.7877 31.966 86.2576C31.966 82.9832 31.9972 79.7087 31.966 76.4343C31.966 75.031 31.2799 74.189 30.1261 74.189C29.0034 74.189 28.3173 74.9998 28.2862 76.4343C28.2862 79.7087 28.2862 82.9832 28.2862 86.2576C28.099 86.6942 27.5377 86.7566 27.3818 87.2243Z" fill="url(#paint3_linear_527_2626)"></path><path d="M28.2852 111.861C28.9712 111.268 29.8756 111.362 30.6552 111.112C36.518 109.397 40.8527 105.811 43.8465 100.54C45.9983 96.7358 46.8714 92.6506 46.5284 88.3159C46.1542 83.5134 44.3454 79.241 41.1334 75.5924C37.9525 71.9125 33.9608 69.636 29.2519 68.5445C28.9712 68.4822 28.597 68.5445 28.5346 68.108C39.3558 67.11 49.5845 74.9375 51.7363 85.6339C54.1064 97.4531 46.4972 108.742 35.3018 111.393C32.9941 111.954 30.6552 112.266 28.2852 111.861Z" fill="#F5CB9F"></path><path d="M96.1133 111.081C96.1133 105.904 96.1133 100.728 96.1133 95.5509C96.1133 91.8399 99.4813 88.4407 103.161 88.1289C106.903 87.817 110.614 88.0353 114.357 87.9418C115.978 88.0665 117.631 87.6923 119.253 88.1913C118.068 90.4366 115.916 91.8711 114.357 93.7734C113.764 94.3347 113.171 94.8649 112.579 95.4574C107.87 100.166 103.13 104.906 98.421 109.615C97.7661 110.27 97.08 110.863 96.1133 111.081Z" fill="#8D8787"></path><path d="M86.0391 14.501C86.0391 12.4116 86.0391 10.291 86.0391 8.20159C86.0702 7.23486 85.9767 6.26812 86.1326 5.30139C86.4757 3.33673 87.5048 1.80866 89.3447 0.904297C91.4964 2.21407 92.4944 4.08517 92.4008 6.64234C92.3073 9.16833 92.3696 11.6943 92.4008 14.2203C92.432 16.6216 91.2781 18.2432 89.3135 19.4282C88.5027 19.1475 87.9414 18.4927 87.3177 17.9625C86.6628 16.9022 86.1014 15.7796 86.0391 14.501Z" fill="#DB9243"></path><path d="M108.275 8.20166C108.213 8.3264 108.15 8.3264 108.057 8.20166C108.119 8.20166 108.181 8.20166 108.275 8.20166Z" fill="#FC3339"></path><path d="M98.015 14.5009C99.3248 14.5009 100.666 14.4697 101.976 14.5009C103.005 14.5009 103.784 15.2494 103.815 16.2161C103.847 17.1516 103.098 17.9936 102.038 18.0248C100.292 18.056 98.5452 18.0248 96.7988 18.0248C97.3913 16.9022 98.0462 15.8107 98.015 14.5009Z" fill="#FA9E3B"></path><path d="M50.2706 14.4697C51.518 14.4697 52.7654 14.4697 53.9816 14.5009C55.0731 14.5009 55.8527 15.1558 55.8839 16.0913C55.9151 17.1828 55.1666 17.9936 54.0128 17.9936C52.2976 18.0248 50.6136 17.9936 48.8984 17.9936C49.6781 16.9645 49.9899 15.7171 50.2706 14.4697Z" fill="#FA9E3B"></path><path d="M71.8515 57.9417C69.2631 57.9417 66.8619 57.9417 64.4606 57.9417C63.4939 57.9417 62.496 57.9729 61.5292 57.9106C60.4066 57.8482 59.627 57.0374 59.627 56.0706C59.6581 55.0727 60.4378 54.2619 61.5604 54.2619C65.8951 54.2307 70.1987 54.2307 74.5334 54.2619C76.155 54.2931 76.8411 55.5717 76.1238 57.1621C73.0989 64.1164 70.0428 71.0395 66.9866 77.9937C66.6436 78.7733 66.3006 79.553 65.9575 80.3326C65.365 81.6424 64.4294 82.1101 63.4003 81.6736C62.3712 81.237 62.0594 80.1767 62.6519 78.8981C64.9596 73.659 67.2361 68.4199 69.5438 63.212C70.2922 61.528 71.0407 59.8129 71.8515 57.9417Z" fill="#141414"></path><path d="M38.1094 14.501C38.2341 15.6861 38.6707 16.7775 39.2944 17.8066C37.3921 18.2744 35.4587 18.0873 33.5564 17.9002C32.652 17.8066 32.2466 16.8711 32.309 16.0291C32.4025 15.1559 32.9638 14.4698 34.0241 14.501C35.3963 14.501 36.7684 14.501 38.1094 14.501Z" fill="#FA9E3B"></path><path d="M86.0395 14.501C86.1331 15.7796 86.6632 16.9022 87.3181 17.9937C85.6653 17.9937 83.9813 18.0249 82.3285 17.9937C81.0811 17.9937 80.2703 17.3076 80.2391 16.2785C80.2079 15.2182 81.0499 14.501 82.3285 14.501C83.5447 14.501 84.7921 14.501 86.0395 14.501Z" fill="#FA9E3B"></path><path d="M28.3478 86.3201C28.3478 83.0456 28.3167 79.7712 28.3478 76.4968C28.3478 75.0935 29.0339 74.2515 30.1878 74.2515C31.3104 74.2515 32.0277 75.0623 32.0277 76.4968C32.0277 79.7712 32.0277 83.0456 32.0277 86.3201C30.7803 85.977 29.5641 85.9458 28.3478 86.3201Z" fill="#4B4848"></path><path d="M28.3476 86.32C29.5638 85.9458 30.78 85.9458 31.9651 86.32C32.7135 86.8501 33.3372 87.4738 33.8673 88.2223C34.2416 89.4385 34.2416 90.6547 33.8673 91.8709C32.9006 93.2119 31.7156 94.1786 29.9068 94.0539C28.9089 93.9603 28.0357 93.7108 27.3809 92.8688C29.0025 91.1225 29.0025 89.0019 27.3809 87.2555C27.5368 86.7566 28.0981 86.6942 28.3476 86.32Z" fill="#FEB555"></path><path d="M33.8672 91.8398C34.2414 90.6235 34.2414 89.4073 33.8672 88.1911C35.8007 88.1911 37.7653 88.1599 39.6988 88.1911C41.1333 88.1911 41.9129 88.8772 41.9129 90.031C41.9129 91.1849 41.1021 91.8398 39.6988 91.8709C37.7653 91.8709 35.8318 91.8709 33.8672 91.8398Z" fill="#4B4848"></path><path d="M27.3802 87.2246C29.0019 88.971 29.0019 91.0916 27.3802 92.8379C25.7274 91.0916 25.7274 88.971 27.3802 87.2246Z" fill="url(#paint4_linear_527_2626)"></path><defs><linearGradient id="paint0_linear_527_2626" x1="90.9399" y1="4.77033" x2="101.939" y2="7.01181" gradientUnits="userSpaceOnUse"><stop stop-color="#FA9E3B"></stop><stop offset="1" stop-color="#F5CB9F"></stop></linearGradient><linearGradient id="paint1_linear_527_2626" x1="43.0683" y1="4.73806" x2="54.2461" y2="7.05691" gradientUnits="userSpaceOnUse"><stop stop-color="#FA9E3B"></stop><stop offset="1" stop-color="#F5CB9F"></stop></linearGradient><linearGradient id="paint2_linear_527_2626" x1="34.4733" y1="13.171" x2="59.0024" y2="63.7586" gradientUnits="userSpaceOnUse"><stop stop-color="#FA9E3B"></stop><stop offset="1" stop-color="#F5CB9F"></stop></linearGradient><linearGradient id="paint3_linear_527_2626" x1="15.3904" y1="78.0517" x2="58.4684" y2="95.7009" gradientUnits="userSpaceOnUse"><stop stop-color="#FDC07E"></stop><stop offset="1" stop-color="#FFDEBB"></stop></linearGradient><linearGradient id="paint4_linear_527_2626" x1="26.5977" y1="88.5004" x2="29.6899" y2="89.1327" gradientUnits="userSpaceOnUse"><stop stop-color="#FA9E3B"></stop><stop offset="1" stop-color="#F5CB9F"></stop></linearGradient></defs></svg>