<svg xmlns="http://www.w3.org/2000/svg" width="133" height="113" viewBox="0 0 133 113" fill="none"><path d="M66.3092 112.136C46.9465 112.136 27.5431 112.054 8.18043 112.176C3.17704 112.217 0.410936 109.044 0.451614 104.366C0.53297 78.617 0.492292 52.9085 0.492292 27.1593C0.492292 24.1898 1.42788 21.7898 4.19399 20.3661C5.33297 19.7966 6.51263 19.6746 7.73297 19.6746C23.2313 19.6746 38.7703 19.6746 54.2686 19.6746C55.0414 19.6746 55.7736 19.4305 55.3669 20.8136C52.5601 30.0068 53.9025 38.7525 58.1737 47.2136C62.7703 56.2847 69.0753 64.0949 75.9499 71.4576C77.577 73.2068 79.2855 74.8746 80.994 76.5831C82.255 77.8848 83.7194 78.861 85.4686 79.4305C86.0787 79.6339 86.4448 79.8373 86.4855 80.6509C86.6482 85.5322 86.0381 87.6475 80.0584 87.4034C75.7465 87.2407 71.4347 87.3627 67.0821 87.3627C65.7398 87.3627 64.6414 86.9966 63.5431 86.1831C59.0279 82.8068 54.5126 79.4305 49.9567 76.0949C49.1025 75.4847 48.9398 74.9966 49.5906 74.1831C49.672 74.061 49.7533 73.939 49.794 73.7763C50.4042 71.4983 51.3804 69.8305 54.2686 70.3186C55.5296 70.522 56.5465 68.9356 56.4652 67.6746C56.3838 66.3729 55.3262 65.1525 53.9838 65.3153C51.7059 65.6 50.8516 64.7051 50.0787 62.5898C48.7364 58.9288 45.8482 56.5695 42.1059 55.4305C41.1296 55.1458 40.8042 54.739 40.8855 53.7627C40.9669 53.0712 40.9262 52.339 40.7635 51.6475C40.4381 50.2644 39.5025 49.6136 38.0787 49.6542C36.777 49.6949 35.5974 50.6712 35.8008 51.9729C36.1262 54.4136 34.9872 55.2678 32.872 56.0814C29.2923 57.4644 26.9736 60.3525 25.8753 64.0542C25.5499 65.0712 25.1431 65.3559 24.2076 65.2746C23.7194 65.2339 23.1906 65.2339 22.7025 65.2746C21.2381 65.3559 20.1804 66.3729 20.1398 67.7559C20.0991 69.0576 21.0753 70.522 22.377 70.3593C25.0618 69.9932 25.8753 71.4576 26.7703 73.5729C28.194 76.9898 30.9601 79.1458 34.4991 80.2441C35.4753 80.5288 36.0042 80.8949 35.8414 81.9932C35.7601 82.522 35.8008 83.1322 35.8414 83.661C35.9635 85.0034 36.8991 85.939 38.1601 86.061C39.4211 86.1424 40.5194 85.3695 40.8855 84.0678C40.9262 83.9051 41.0075 83.7424 40.9669 83.6203C40.1126 80.3661 42.7974 80.122 44.7092 79.1864C45.4414 78.8203 45.7669 79.3898 46.1737 79.6746C50.9737 83.2136 55.733 86.7119 60.4923 90.2915C62.5262 91.8373 64.7228 92.5695 67.2855 92.5288C72.2076 92.4475 77.1703 92.5288 82.0923 92.4881C88.0313 92.4475 91.855 88.7051 91.733 82.7254C91.6923 80.6102 91.977 79.1864 94.255 78.6576C95.0686 78.4542 95.8821 77.7627 96.4923 77.1525C105.238 68.7322 113.211 59.661 119.069 48.922C121.753 44 123.747 38.7932 124.194 33.0983C124.519 28.9085 123.95 24.8 122.811 20.7322C122.526 19.7559 122.689 19.4305 123.706 19.5525C124.723 19.6746 125.74 19.5932 126.757 19.7153C129.604 20.122 131.841 22.5627 132.045 25.4102C132.086 25.8983 132.086 26.4271 132.086 26.9153C132.086 52.8678 132.086 78.7797 132.126 104.732C132.126 107.498 131.272 109.695 128.831 111.159C127.57 111.932 126.147 111.973 124.723 111.973C105.157 112.136 85.7126 112.136 66.3092 112.136Z" fill="#FA9E3B"></path><path d="M119.028 31.1865C118.865 36.4339 117.156 41.3966 114.634 46.0746C109.062 56.4475 101.414 65.1526 92.9938 73.2882C90.7565 75.4848 87.2582 75.4441 84.9802 73.2475C76.6819 65.1526 69.0751 56.5695 63.5429 46.278C60.9802 41.5187 59.0684 36.556 59.0684 31.1051C59.0684 24.8814 60.8582 19.0644 64.3565 13.8983C69.2379 6.69834 75.8277 1.9797 84.4921 0.678001C95.4345 -0.949117 104.506 2.67122 111.665 11.0102C116.628 16.7051 118.824 23.539 119.028 31.1865ZM103.285 30.2102C103.285 22.2373 97.1023 15.9322 89.1701 15.8916C81.1158 15.8509 74.8107 22.0746 74.8107 30.1289C74.8107 38.1017 80.9938 44.3661 88.9667 44.4068C96.9802 44.4475 103.285 38.2238 103.285 30.2102Z" fill="#F5CB9F"></path><path d="M38.3637 60.1492C42.6349 60.1898 46.0926 63.6881 46.0926 67.9593C46.0519 72.2712 42.4722 75.7695 38.1604 75.7288C33.8485 75.6881 30.3909 72.1085 30.5129 67.7153C30.5943 63.4034 34.0519 60.0678 38.3637 60.1492Z" fill="#F5CB9F"></path></svg>