<svg xmlns="http://www.w3.org/2000/svg" width="160" height="50" viewBox="0 0 160 50" fill="none"><path d="M23.49 35.2135V40.8423H4.696C3.98 40.8423 3.4 40.2846 3.4 39.5962V8.50192H10.144V35.2135H23.49Z" fill="white"></path><path d="M34.11 18.9769H27.506V40.8423H34.11V18.9769Z" fill="white"></path><path d="M63.456 26.4731V40.8423H56.92V29.3308C56.92 26.6731 54.678 24.5192 51.914 24.5192C50.532 24.5192 49.282 25.0577 48.376 25.9288C47.47 26.8 46.91 28.0019 46.91 29.3308V40.8423H40.51V18.9769H46.842L46.826 23.6096C46.826 20.9058 50.798 18.5192 53.608 18.5192H55.182C59.752 18.5192 63.456 22.0808 63.456 26.4731Z" fill="white"></path><path d="M129.596 25.3019V40.8423H123.416V26.4192C123.416 24.6 121.876 23.1269 119.982 23.1385C118.692 23.1462 117.526 23.6538 116.684 24.4692C115.84 25.2865 115.32 26.4115 115.32 27.6519V40.8423H109.14V26.4192C109.14 24.6 107.6 23.1269 105.706 23.1385C104.416 23.1462 103.244 23.6538 102.394 24.4692C101.544 25.2865 101.016 26.4115 101.016 27.6519L100.97 40.8423H94.766V19.3154C94.766 17.8462 92.92 17.1115 91.84 18.15L81.004 28.5673L92.494 40.8423H84.426L76.154 31.5135V40.8423H69.514V7.30769H76.154V25L87.52 14.0712C92.518 9.26346 101.066 12.6846 101.044 19.4827L101.03 23.8C101.03 20.6538 103.696 18.1096 106.966 18.1096H107.838C110.77 18.1096 113.308 19.7327 114.536 22.0942C115.576 19.9577 117.972 18.1096 121.242 18.1096H122.114C126.246 18.1096 129.596 21.3308 129.596 25.3019Z" fill="white"></path><path d="M156.6 31.1538V29.1596C156.6 26.1077 155.314 23.3462 153.234 21.3462C151.156 19.3462 148.282 18.1096 145.108 18.1096C138.762 18.1096 133.618 23.0558 133.618 29.1596V30.6981C133.618 36.7904 138.754 41.7308 145.092 41.7308H146.724C148.972 41.7308 151.44 40.8538 153.348 39.4385C155.256 38.0231 156.6 36.0654 156.6 33.9038H150.672C150.672 35.7115 149.148 37.1769 147.268 37.1769H145.524C142.538 37.1769 140.12 34.85 140.12 31.9808V31.1538H156.6ZM145.26 22.4135H145.6C147.01 22.4135 148.286 22.9635 149.21 23.8519C150.134 24.7404 150.706 25.9692 150.706 27.325H140.154C140.154 24.6115 142.44 22.4135 145.26 22.4135Z" fill="white"></path><path d="M34.928 11.3423C34.928 13.3981 33.084 15.0654 30.808 15.0654C28.534 15.0654 26.69 13.3981 26.69 11.3423C26.69 9.28654 28.534 7.61923 30.808 7.61923C33.084 7.61923 34.928 9.28654 34.928 11.3423Z" fill="white"></path></svg>