<svg xmlns="http://www.w3.org/2000/svg" xmlns:xlink="http://www.w3.org/1999/xlink" id="Layer_1" x="0px" y="0px" viewBox="0 0 162.5 14.7" style="enable-background:new 0 0 162.5 14.7;" xml:space="preserve"><style type="text/css">	.st0{fill:#FFFFFF;stroke:#FFFFFF;stroke-width:0.25;stroke-miterlimit:10;}</style><g>	<path class="st0" d="M4.7,14.1C4,14.1,3.3,14,2.5,14c-0.6,0-1.3,0.1-1.9,0.1c-0.3,0-0.5-0.1-0.5-0.5c0-0.5,0.1-0.6,0.7-0.6   c0.8,0,0.8-0.6,0.8-1.3V2.1c0-0.6-0.1-0.8-0.3-0.8c-0.2,0-0.4,0.1-0.6,0.1c-0.4,0-0.6-0.1-0.6-0.6c0-0.3,0.2-0.5,0.5-0.5   c0.5,0,1,0.1,1.5,0.1c0.6,0,1.3-0.1,1.9-0.1c0.9,0,1.8-0.1,2.7-0.1c4,0,7.1,1.5,7.1,6.3C13.9,12.1,9.2,14.1,4.7,14.1z M5.4,1.1   c-1.1,0-2,0.2-2,1.6V12c0,0.8,0.8,1.2,2.1,1.2c3.5,0,6.5-2.7,6.5-6.5C12,2.7,8.7,1.1,5.4,1.1z"></path>	<path class="st0" d="M27,14.3c-3.8,0-7-2.7-7-6.9c0-4.1,3.4-7.3,7.2-7.3c3.8,0,7.1,2.7,7.1,6.8C34.3,11.6,31.2,14.3,27,14.3z    M26.9,1.2c-3,0-5.1,2.7-5.1,5.7c0,3.4,2.2,6.2,5.5,6.2c3.3,0,5.2-2.4,5.2-5.7C32.5,4.2,30.1,1.2,26.9,1.2z"></path>	<path class="st0" d="M53.9,1.4C53.1,1.4,53,2,53,2.7v8.9c0,0.8,0.1,1.6,0.1,2.4c0,0.2-0.1,0.6-0.4,0.6c-0.3,0-0.5-0.4-0.7-0.6   l-8.8-9.5C43.1,4.3,43,4,42.7,4c-0.3,0-0.3,0.3-0.3,0.5v7.3c0,1,0.2,1.3,1.1,1.3c0.4,0,0.5,0.1,0.5,0.6c0,0.3-0.1,0.5-0.4,0.5   c-0.6,0-1.1-0.1-1.7-0.1c-0.5,0-1,0.1-1.5,0.1c-0.3,0-0.5-0.1-0.5-0.5c0-0.4,0.2-0.5,0.8-0.5c0.4,0,0.7-0.1,0.7-1.1V2.8   c0-0.5-0.2-1.4-0.8-1.4c-0.2,0-0.4,0.1-0.6,0.1c-0.3,0-0.4-0.3-0.4-0.6c0-0.4,0.2-0.5,0.6-0.5c0.5,0,1,0.1,1.5,0.1   c0.6,0,0.8,0.1,1.3,0.7c0.2,0.3,0.5,0.6,0.8,1l7.2,7.8c0.2,0.3,0.6,0.8,0.9,0.8c0.2,0,0.2-0.1,0.2-0.5V2.4c0-1-0.3-1.1-0.9-1.1   c-0.3,0-0.6,0-0.6-0.5c0-0.3,0.2-0.5,0.5-0.5c0.5,0,1,0.1,1.5,0.1c0.6,0,1.1-0.1,1.7-0.1c0.3,0,0.4,0.2,0.4,0.5   C54.6,1.3,54.5,1.4,53.9,1.4z"></path>	<path class="st0" d="M75,14.1c-0.6,0-1.1-0.1-1.7-0.1c-0.8,0-1.6,0.1-2.3,0.1c-0.3,0-0.4-0.3-0.4-0.5c0-0.4,0.3-0.5,0.6-0.5   c0.5,0,0.7-0.1,0.7-0.4c0-0.3-0.6-1.4-0.8-1.8h-7.3c-0.2,0.4-0.8,1.5-0.8,1.9c0,0.2,0.2,0.3,0.6,0.3c0.3,0,0.6,0,0.6,0.5   c0,0.3-0.1,0.5-0.3,0.5c-0.5,0-1-0.1-1.6-0.1c-0.5,0-0.9,0.1-1.4,0.1c-0.3,0-0.6-0.2-0.6-0.5c0-0.3,0.4-0.4,0.6-0.5   c0.8-0.2,1.3-1.5,1.6-2.2l4.1-8.7C66.8,1.7,67,1.4,67,0.9c0-0.4,0-0.8,0.4-0.8s0.6,0.7,0.7,0.9l5.3,10.5c0.4,0.7,0.8,1.5,1.7,1.5   c0.3,0,0.5,0.1,0.5,0.5C75.6,13.9,75.3,14.1,75,14.1z M67.3,3.2l-3,6.6h6.2L67.3,3.2z"></path>	<path class="st0" d="M91.3,2.1c-0.2,0.4-0.3,1-0.8,1c-0.2,0-0.5-0.1-0.5-0.4c0-0.4,0.4-0.6,0.4-1c0-0.3-0.2-0.3-0.4-0.3h-2.5   c-0.9,0-1.1,0.3-1.1,1.3v9.1c0,0.9,0.1,1.3,1,1.3c0.4,0,0.5,0.1,0.5,0.6c0,0.3-0.2,0.5-0.5,0.5c-0.6,0-1.3-0.1-1.9-0.1   c-0.6,0-1.3,0.1-1.9,0.1c-0.3,0-0.5-0.1-0.5-0.5c0-0.5,0.1-0.6,0.7-0.6c0.7,0,0.8-0.6,0.8-1.3V2.4c0-0.9-0.1-1-1.3-1   c-1.7,0-2.3,0.6-2.7,1.2c-0.3,0.4-0.4,0.8-0.9,0.8c-0.2,0-0.5-0.1-0.5-0.4c0-0.2,0.9-1.2,0.9-2c0-0.5,0.3-0.6,0.7-0.6   c1.5,0,3,0.1,4.5,0.1c2.2,0,4.4-0.1,6.6-0.1c0.3,0,0.4,0,0.4,0.4C92.2,1,91.5,1.8,91.3,2.1z"></path>	<path class="st0" d="M108.3,12.8c-0.2,0.4-0.4,1.3-0.9,1.3c-0.5,0-1.1-0.1-1.6-0.1h-5.6c-0.5,0-1,0.1-1.6,0.1   c-0.3,0-0.5-0.1-0.5-0.5c0-0.5,0.1-0.6,0.7-0.6c0.8,0,0.8-0.6,0.8-1.3V2c0-0.6-0.1-0.7-0.3-0.7c-0.2,0-0.4,0.1-0.6,0.1   c-0.4,0-0.6-0.1-0.6-0.6c0-0.3,0.2-0.5,0.5-0.5c0.6,0,1.3,0.1,1.9,0.1h2.6c1.1,0,2.2-0.1,3.3-0.1c0.4,0,0.8,1.3,0.9,1.7   c0.1,0.1,0.3,0.5,0.3,0.6c0,0.2-0.2,0.4-0.4,0.4c-0.3,0-0.6-0.1-0.7-0.4c-0.2-0.4-0.5-0.7-0.8-1c-0.4-0.3-1.1-0.3-2.6-0.3   c-0.7,0-1.4,0.1-1.6,0.4c-0.1,0.2-0.1,0.6-0.1,0.8v3.2c0,0.4,0.2,0.5,0.5,0.5h2c0.9,0,1-0.2,1-0.7c0-0.1,0,0.7,0,0.5   c0-0.4,0.1-0.6,0.5-0.6c0.2,0,0.4,0.2,0.4,0.4c0,0.6-0.1,0.3-0.1,0.9s0.1,0.3,0.1,0.9c0,0.2-0.2,0.4-0.4,0.4   c-0.4,0-0.5-0.2-0.5-0.6c0-0.2,0,0.6,0,0.4c0-0.6-0.2-0.8-0.7-0.8H102c-0.4,0-0.5,0.2-0.5,0.6v4.1c0,0.4,0,0.7,0.2,0.9   c0.2,0.3,0.7,0.4,2,0.4h1.4c1.1,0,1.5-0.1,1.7-0.3c0.3-0.2,1.4-1.5,1.7-1.5c0.2,0,0.6,0,0.6,0.3C109.1,11.7,108.4,12.5,108.3,12.8z   "></path>	<path class="st0" d="M125.2,12.8c-0.1,0.4-0.4,1.3-0.9,1.3c-0.5,0-1.1-0.1-1.6-0.1h-6c-0.4,0-0.9,0.1-1.3,0.1   c-0.3,0-0.5-0.1-0.5-0.5c0-0.5,0.1-0.6,0.7-0.6c0.4,0,0.8-0.1,0.8-1.3V2.7c0-0.9-0.1-1.3-1-1.3c-0.4,0-0.5-0.1-0.5-0.6   c0-0.3,0.2-0.5,0.5-0.5c0.6,0,1.3,0.1,1.9,0.1c0.6,0,1.3-0.1,1.9-0.1c0.3,0,0.5,0.1,0.5,0.5c0,0.5-0.1,0.6-0.7,0.6   c-0.7,0-0.8,0.6-0.8,1.3v9.2c0,1.2,0.6,1.2,1.6,1.2h2.4c0.7,0,1.2,0,1.5-0.3c0.3-0.2,1.4-1.5,1.7-1.5c0.3,0,0.6,0.1,0.6,0.3   C126,11.8,125.4,12.3,125.2,12.8z"></path>	<path class="st0" d="M141.3,12.8c-0.1,0.4-0.4,1.3-0.9,1.3c-0.5,0-1.1-0.1-1.6-0.1h-6c-0.4,0-0.9,0.1-1.3,0.1   c-0.3,0-0.5-0.1-0.5-0.5c0-0.5,0.1-0.6,0.7-0.6c0.4,0,0.8-0.1,0.8-1.3V2.7c0-0.9-0.1-1.3-1-1.3c-0.4,0-0.5-0.1-0.5-0.6   c0-0.3,0.2-0.5,0.5-0.5c0.6,0,1.3,0.1,1.9,0.1c0.6,0,1.3-0.1,1.9-0.1c0.3,0,0.5,0.1,0.5,0.5c0,0.5-0.1,0.6-0.7,0.6   c-0.7,0-0.8,0.6-0.8,1.3v9.2c0,1.2,0.6,1.2,1.6,1.2h2.4c0.7,0,1.2,0,1.5-0.3c0.3-0.2,1.4-1.5,1.7-1.5c0.3,0,0.6,0.1,0.6,0.3   C142,11.8,141.5,12.3,141.3,12.8z"></path>	<path class="st0" d="M161.9,14.1c-0.6,0-1.1-0.1-1.7-0.1c-0.8,0-1.6,0.1-2.3,0.1c-0.3,0-0.4-0.3-0.4-0.5c0-0.4,0.3-0.5,0.6-0.5   c0.5,0,0.7-0.1,0.7-0.4c0-0.3-0.6-1.4-0.8-1.8h-7.3c-0.2,0.4-0.8,1.5-0.8,1.9c0,0.2,0.2,0.3,0.6,0.3c0.3,0,0.6,0,0.6,0.5   c0,0.3-0.1,0.5-0.3,0.5c-0.5,0-1-0.1-1.6-0.1c-0.5,0-0.9,0.1-1.4,0.1c-0.3,0-0.6-0.2-0.6-0.5c0-0.3,0.4-0.4,0.6-0.5   c0.8-0.2,1.3-1.5,1.6-2.2l4.1-8.7c0.2-0.4,0.4-0.8,0.4-1.3c0-0.4,0-0.8,0.4-0.8s0.6,0.7,0.7,0.9l5.3,10.5c0.4,0.7,0.8,1.5,1.7,1.5   c0.3,0,0.5,0.1,0.5,0.5C162.4,13.9,162.2,14.1,161.9,14.1z M154.1,3.2l-3,6.6h6.2L154.1,3.2z"></path></g></svg>