<svg xmlns="http://www.w3.org/2000/svg" width="232" height="77.42" viewBox="0 0 232 77.42"><defs><style>.cls-1{fill:#fff;}</style></defs><title>logo-white_2</title><g id="Layer_2" data-name="Layer 2"><g id="Capa_1" data-name="Capa 1"><path class="cls-1" d="M70.25,47.38v0a5.29,5.29,0,0,1,5.29-5.46,5.53,5.53,0,0,1,3.93,1.4l-.77.91A4.48,4.48,0,0,0,75.49,43a4.12,4.12,0,0,0-4,4.33v0a4.08,4.08,0,0,0,4.18,4.38,5,5,0,0,0,3-1V48.05H75.49V47h4.36v4.21a6.42,6.42,0,0,1-4.24,1.61A5.17,5.17,0,0,1,70.25,47.38Z"></path><path class="cls-1" d="M91.57,42.07h4.54a4.12,4.12,0,0,1,3,1.06,2.92,2.92,0,0,1,.82,2.08v0a3.09,3.09,0,0,1-2.87,3.07l3.24,4.31H98.84l-3.06-4.1h-3v4.1h-1.2ZM96,47.45c1.58,0,2.71-.81,2.71-2.17v0c0-1.3-1-2.08-2.7-2.08H92.77v4.28Z"></path><path class="cls-1" d="M111.05,47.38v0a5.38,5.38,0,1,1,10.76,0s0,0,0,0a5.38,5.38,0,1,1-10.76,0Zm9.52,0v0A4.19,4.19,0,0,0,116.41,43a4.15,4.15,0,0,0-4.13,4.33v0a4.19,4.19,0,0,0,4.16,4.35A4.14,4.14,0,0,0,120.57,47.38Z"></path><path class="cls-1" d="M133.21,48.21V42.07h1.19v6.06c0,2.28,1.2,3.56,3.22,3.56s3.18-1.18,3.18-3.48V42.07H142v6c0,3.08-1.76,4.68-4.4,4.68S133.21,51.19,133.21,48.21Z"></path><path class="cls-1" d="M153.86,42.07h3.94c2.39,0,3.95,1.27,3.95,3.35v0c0,2.27-1.9,3.45-4.14,3.45h-2.56v3.72h-1.19Zm3.79,5.74c1.75,0,2.9-.93,2.9-2.32v0c0-1.51-1.13-2.29-2.84-2.29h-2.66v4.64Z"></path><path class="cls-1" d="M14,27.83a17.15,17.15,0,0,0,11.23-4.19V12.34H13.72v4.11h6.89v5a11,11,0,0,1-6.5,2C8.61,23.53,5,19.45,5,13.92v-.08c0-5.15,3.77-9.5,8.73-9.5a10.54,10.54,0,0,1,7.53,2.89l3-3.58A14.55,14.55,0,0,0,13.88,0,13.71,13.71,0,0,0,0,13.92V14C0,21.84,5.54,27.83,14,27.83Z"></path><polygon class="cls-1" points="52.39 0.27 40.55 27.37 45.39 27.37 48.16 20.87 49.89 16.68 54.5 5.92 59.16 16.68 60.88 20.87 63.61 27.37 68.61 27.37 56.77 0.27 52.39 0.27"></polygon><path class="cls-1" d="M106.39,15.72V.46h-4.73V16c0,5-2.57,7.5-6.76,7.5s-6.81-2.69-6.81-7.69V.46H83.37V16c0,7.81,4.45,11.84,11.45,11.84S106.39,23.76,106.39,15.72Z"></path><path class="cls-1" d="M137.06,23.49c-5.15,0-8.88-4.31-8.88-9.57v-.08c0-5.27,3.73-9.5,8.88-9.5,3.08,0,5.38,1.35,7.54,3.35l3-3.5A14,14,0,0,0,137.1,0a13.62,13.62,0,0,0-13.88,13.92V14a13.54,13.54,0,0,0,13.69,13.84,13.9,13.9,0,0,0,10.92-4.76l-3-3.08C142.48,22.14,140.37,23.49,137.06,23.49Z"></path><polygon class="cls-1" points="186.61 27.37 186.61 0.46 181.88 0.46 181.88 11.65 169.04 11.65 169.04 0.46 164.31 0.46 164.31 27.37 169.04 27.37 169.04 16.03 181.88 16.03 181.88 27.37 186.61 27.37"></polygon><path class="cls-1" d="M218,0a13.79,13.79,0,0,0-14.11,13.92V14A14.07,14.07,0,0,0,232,13.92v-.08A13.66,13.66,0,0,0,218,0ZM227,14c0,5.23-3.73,9.5-9.07,9.5s-9.15-4.35-9.15-9.57v-.08c0-5.23,3.73-9.5,9.07-9.5S227,8.69,227,13.92Z"></path><path class="cls-1" d="M61.64,69.09h.8v3.15h4.09V69.09h.8v7.1h-.8V73H62.44v3.2h-.8Z"></path><path class="cls-1" d="M71.06,72.66v0a3.62,3.62,0,1,1,7.23,0v0a3.6,3.6,0,0,1-3.63,3.67A3.55,3.55,0,0,1,71.06,72.66Zm6.4,0v0a2.83,2.83,0,0,0-2.8-2.93,2.78,2.78,0,0,0-2.77,2.91v0a2.79,2.79,0,1,0,5.57,0Z"></path><path class="cls-1" d="M82,69.09h.8v6.36h4v.74H82Z"></path><path class="cls-1" d="M90.31,69.09h2.46a3.54,3.54,0,0,1,3.77,3.53v0a3.55,3.55,0,0,1-3.77,3.55H90.31Zm.8.74v5.62h1.66a2.75,2.75,0,0,0,2.94-2.79v0a2.76,2.76,0,0,0-2.94-2.81Z"></path><path class="cls-1" d="M100.34,69.09h.8v7.1h-.8Z"></path><path class="cls-1" d="M105.24,69.09H106l4.47,5.69V69.09h.78v7.1h-.64L106,70.37v5.82h-.78Z"></path><path class="cls-1" d="M115,72.66v0A3.56,3.56,0,0,1,118.52,69a3.77,3.77,0,0,1,2.64.94l-.51.61a3.06,3.06,0,0,0-2.16-.81,2.78,2.78,0,0,0-2.7,2.91v0a2.75,2.75,0,0,0,2.81,3,3.39,3.39,0,0,0,2.05-.71V73.12h-2.16V72.4h2.93v2.82a4.31,4.31,0,0,1-2.85,1.09A3.48,3.48,0,0,1,115,72.66Z"></path><path class="cls-1" d="M124.78,75.15l.5-.59a3.38,3.38,0,0,0,2.43,1c1,0,1.58-.51,1.58-1.21v0c0-.66-.35-1-1.84-1.35s-2.38-.88-2.38-2v0A2.09,2.09,0,0,1,127.4,69a3.74,3.74,0,0,1,2.49.87l-.47.62a3.08,3.08,0,0,0-2-.77c-.93,0-1.51.51-1.51,1.15v0c0,.67.36,1,1.92,1.38s2.31.92,2.31,2v0c0,1.22-1,2-2.42,2A4.15,4.15,0,0,1,124.78,75.15Z"></path><path class="cls-1" d="M133.22,77.07c.51-.18.72-.45.68-.88h-.36V75.12h.93V76a1.24,1.24,0,0,1-1.12,1.39Z"></path><path class="cls-1" d="M143.41,69.09h.8v7.1h-.8Z"></path><path class="cls-1" d="M148.32,69.09h.75l4.46,5.69V69.09h.78v7.1h-.63l-4.58-5.82v5.82h-.78Z"></path><path class="cls-1" d="M158,72.66v0A3.57,3.57,0,0,1,161.62,69a3.69,3.69,0,0,1,2.77,1.13l-.55.58a3.12,3.12,0,0,0-2.23-1,2.78,2.78,0,0,0-2.74,2.91v0a2.8,2.8,0,0,0,2.74,2.93,3.09,3.09,0,0,0,2.29-1l.53.52a3.7,3.7,0,0,1-2.84,1.25A3.53,3.53,0,0,1,158,72.66Z"></path><path class="cls-1" d="M167.63,75.12h.93v1.07h-.93Z"></path><rect class="cls-1" x="176.94" y="71.99" width="53.53" height="0.69"></rect><rect class="cls-1" y="71.99" width="53.53" height="0.69"></rect></g></g></svg>